<mxfile host="app.diagrams.net" modified="2021-04-25T07:01:54.152Z" agent="5.0 (Windows NT 10.0; Win64; x64) AppleWebKit/537.36 (KHTML, like Gecko) Chrome/90.0.4430.85 Safari/537.36" etag="H2KfA5WXzvflTV2_hGo7" version="14.6.6" type="github">
  <diagram id="_GNly9VgjIDP1e4vqIvF" name="Page-1">
    <mxGraphModel dx="1769" dy="1752" grid="1" gridSize="10" guides="1" tooltips="1" connect="1" arrows="1" fold="1" page="1" pageScale="1" pageWidth="827" pageHeight="1169" math="0" shadow="0">
      <root>
        <mxCell id="0" />
        <mxCell id="1" parent="0" />
        <mxCell id="ul717lJThdqu9w-6wdEX-38" style="edgeStyle=orthogonalEdgeStyle;rounded=0;orthogonalLoop=1;jettySize=auto;html=1;exitX=0;exitY=0;exitDx=0;exitDy=0;exitPerimeter=0;entryX=1;entryY=0.614;entryDx=0;entryDy=0;entryPerimeter=0;" parent="1" source="ul717lJThdqu9w-6wdEX-4" target="ul717lJThdqu9w-6wdEX-36" edge="1">
          <mxGeometry relative="1" as="geometry" />
        </mxCell>
        <mxCell id="ul717lJThdqu9w-6wdEX-39" style="edgeStyle=orthogonalEdgeStyle;rounded=0;orthogonalLoop=1;jettySize=auto;html=1;exitX=0;exitY=0;exitDx=0;exitDy=52;exitPerimeter=0;" parent="1" source="ul717lJThdqu9w-6wdEX-4" target="ul717lJThdqu9w-6wdEX-37" edge="1">
          <mxGeometry relative="1" as="geometry" />
        </mxCell>
        <mxCell id="ul717lJThdqu9w-6wdEX-40" style="edgeStyle=orthogonalEdgeStyle;rounded=0;orthogonalLoop=1;jettySize=auto;html=1;exitX=0;exitY=0;exitDx=0;exitDy=90;exitPerimeter=0;entryX=0.983;entryY=0.586;entryDx=0;entryDy=0;entryPerimeter=0;" parent="1" source="ul717lJThdqu9w-6wdEX-4" target="ul717lJThdqu9w-6wdEX-35" edge="1">
          <mxGeometry relative="1" as="geometry" />
        </mxCell>
        <mxCell id="ul717lJThdqu9w-6wdEX-58" style="edgeStyle=orthogonalEdgeStyle;rounded=0;orthogonalLoop=1;jettySize=auto;html=1;exitX=0.5;exitY=1;exitDx=0;exitDy=0;exitPerimeter=0;entryX=-0.011;entryY=0.563;entryDx=0;entryDy=0;entryPerimeter=0;" parent="1" source="ul717lJThdqu9w-6wdEX-4" target="ul717lJThdqu9w-6wdEX-57" edge="1">
          <mxGeometry relative="1" as="geometry" />
        </mxCell>
        <mxCell id="ul717lJThdqu9w-6wdEX-4" value="统计分析" style="shape=folder;fontStyle=1;spacingTop=10;tabWidth=40;tabHeight=14;tabPosition=left;html=1;" parent="1" vertex="1">
          <mxGeometry x="-150" y="390" width="110" height="90" as="geometry" />
        </mxCell>
        <mxCell id="ul717lJThdqu9w-6wdEX-41" style="edgeStyle=orthogonalEdgeStyle;rounded=0;orthogonalLoop=1;jettySize=auto;html=1;exitX=0;exitY=0;exitDx=0;exitDy=90;exitPerimeter=0;" parent="1" source="ul717lJThdqu9w-6wdEX-5" target="ul717lJThdqu9w-6wdEX-33" edge="1">
          <mxGeometry relative="1" as="geometry">
            <Array as="points">
              <mxPoint x="310" y="470" />
              <mxPoint x="310" y="470" />
            </Array>
          </mxGeometry>
        </mxCell>
        <mxCell id="ul717lJThdqu9w-6wdEX-42" style="edgeStyle=orthogonalEdgeStyle;rounded=0;orthogonalLoop=1;jettySize=auto;html=1;exitX=0;exitY=0;exitDx=0;exitDy=14;exitPerimeter=0;" parent="1" source="ul717lJThdqu9w-6wdEX-5" target="ul717lJThdqu9w-6wdEX-34" edge="1">
          <mxGeometry relative="1" as="geometry" />
        </mxCell>
        <mxCell id="ul717lJThdqu9w-6wdEX-43" style="edgeStyle=orthogonalEdgeStyle;rounded=0;orthogonalLoop=1;jettySize=auto;html=1;exitX=0;exitY=0;exitDx=0;exitDy=0;exitPerimeter=0;entryX=0.625;entryY=1.025;entryDx=0;entryDy=0;entryPerimeter=0;" parent="1" source="ul717lJThdqu9w-6wdEX-5" target="ul717lJThdqu9w-6wdEX-27" edge="1">
          <mxGeometry relative="1" as="geometry" />
        </mxCell>
        <mxCell id="ul717lJThdqu9w-6wdEX-44" style="edgeStyle=orthogonalEdgeStyle;rounded=0;orthogonalLoop=1;jettySize=auto;html=1;exitX=0;exitY=0;exitDx=75;exitDy=14;exitPerimeter=0;entryX=0.5;entryY=1;entryDx=0;entryDy=0;" parent="1" source="ul717lJThdqu9w-6wdEX-5" target="ul717lJThdqu9w-6wdEX-26" edge="1">
          <mxGeometry relative="1" as="geometry" />
        </mxCell>
        <mxCell id="ul717lJThdqu9w-6wdEX-62" style="edgeStyle=orthogonalEdgeStyle;rounded=0;orthogonalLoop=1;jettySize=auto;html=1;exitX=0.5;exitY=1;exitDx=0;exitDy=0;exitPerimeter=0;" parent="1" source="ul717lJThdqu9w-6wdEX-5" target="ul717lJThdqu9w-6wdEX-61" edge="1">
          <mxGeometry relative="1" as="geometry" />
        </mxCell>
        <mxCell id="ul717lJThdqu9w-6wdEX-5" value="过程记录" style="shape=folder;fontStyle=1;spacingTop=10;tabWidth=40;tabHeight=14;tabPosition=left;html=1;" parent="1" vertex="1">
          <mxGeometry x="320" y="380" width="110" height="90" as="geometry" />
        </mxCell>
        <mxCell id="ul717lJThdqu9w-6wdEX-45" style="edgeStyle=orthogonalEdgeStyle;rounded=0;orthogonalLoop=1;jettySize=auto;html=1;exitX=0;exitY=0;exitDx=75;exitDy=14;exitPerimeter=0;entryX=0.007;entryY=0.492;entryDx=0;entryDy=0;entryPerimeter=0;" parent="1" source="ul717lJThdqu9w-6wdEX-6" edge="1">
          <mxGeometry relative="1" as="geometry">
            <mxPoint x="720.4900000000002" y="279.52" as="targetPoint" />
            <Array as="points">
              <mxPoint x="680" y="394" />
              <mxPoint x="680" y="280" />
            </Array>
          </mxGeometry>
        </mxCell>
        <mxCell id="ul717lJThdqu9w-6wdEX-46" style="edgeStyle=orthogonalEdgeStyle;rounded=0;orthogonalLoop=1;jettySize=auto;html=1;exitX=0;exitY=0;exitDx=110;exitDy=33;exitPerimeter=0;entryX=0;entryY=0.508;entryDx=0;entryDy=0;entryPerimeter=0;" parent="1" source="ul717lJThdqu9w-6wdEX-6" edge="1">
          <mxGeometry relative="1" as="geometry">
            <mxPoint x="720" y="390.48" as="targetPoint" />
          </mxGeometry>
        </mxCell>
        <mxCell id="ul717lJThdqu9w-6wdEX-47" style="edgeStyle=orthogonalEdgeStyle;rounded=0;orthogonalLoop=1;jettySize=auto;html=1;exitX=0;exitY=0;exitDx=110;exitDy=90;exitPerimeter=0;entryX=0;entryY=0.5;entryDx=0;entryDy=0;" parent="1" source="ul717lJThdqu9w-6wdEX-6" target="ul717lJThdqu9w-6wdEX-52" edge="1">
          <mxGeometry relative="1" as="geometry">
            <mxPoint x="717.9699999999998" y="501.98" as="targetPoint" />
            <Array as="points">
              <mxPoint x="680" y="480" />
            </Array>
          </mxGeometry>
        </mxCell>
        <mxCell id="ul717lJThdqu9w-6wdEX-55" style="edgeStyle=orthogonalEdgeStyle;rounded=0;orthogonalLoop=1;jettySize=auto;html=1;exitX=0;exitY=0;exitDx=40;exitDy=0;exitPerimeter=0;entryX=0.579;entryY=1.043;entryDx=0;entryDy=0;entryPerimeter=0;" parent="1" source="ul717lJThdqu9w-6wdEX-6" target="ul717lJThdqu9w-6wdEX-53" edge="1">
          <mxGeometry relative="1" as="geometry" />
        </mxCell>
        <mxCell id="ul717lJThdqu9w-6wdEX-56" style="edgeStyle=orthogonalEdgeStyle;rounded=0;orthogonalLoop=1;jettySize=auto;html=1;exitX=0.5;exitY=1;exitDx=0;exitDy=0;exitPerimeter=0;entryX=0.561;entryY=0.027;entryDx=0;entryDy=0;entryPerimeter=0;" parent="1" source="ul717lJThdqu9w-6wdEX-6" target="ul717lJThdqu9w-6wdEX-54" edge="1">
          <mxGeometry relative="1" as="geometry" />
        </mxCell>
        <mxCell id="ul717lJThdqu9w-6wdEX-6" value="权限管理" style="shape=folder;fontStyle=1;spacingTop=10;tabWidth=40;tabHeight=14;tabPosition=left;html=1;" parent="1" vertex="1">
          <mxGeometry x="570" y="380" width="110" height="90" as="geometry" />
        </mxCell>
        <mxCell id="ul717lJThdqu9w-6wdEX-48" style="edgeStyle=orthogonalEdgeStyle;rounded=0;orthogonalLoop=1;jettySize=auto;html=1;exitX=0;exitY=0;exitDx=75;exitDy=14;exitPerimeter=0;" parent="1" source="ul717lJThdqu9w-6wdEX-7" target="ul717lJThdqu9w-6wdEX-29" edge="1">
          <mxGeometry relative="1" as="geometry" />
        </mxCell>
        <mxCell id="ul717lJThdqu9w-6wdEX-49" style="edgeStyle=orthogonalEdgeStyle;rounded=0;orthogonalLoop=1;jettySize=auto;html=1;exitX=0;exitY=0;exitDx=110;exitDy=52;exitPerimeter=0;entryX=0;entryY=0.5;entryDx=0;entryDy=0;" parent="1" source="ul717lJThdqu9w-6wdEX-7" target="ul717lJThdqu9w-6wdEX-28" edge="1">
          <mxGeometry relative="1" as="geometry">
            <Array as="points">
              <mxPoint x="710" y="115" />
            </Array>
          </mxGeometry>
        </mxCell>
        <mxCell id="ul717lJThdqu9w-6wdEX-60" style="edgeStyle=orthogonalEdgeStyle;rounded=0;orthogonalLoop=1;jettySize=auto;html=1;exitX=0;exitY=0;exitDx=0;exitDy=52;exitPerimeter=0;entryX=1.034;entryY=0.502;entryDx=0;entryDy=0;entryPerimeter=0;" parent="1" source="ul717lJThdqu9w-6wdEX-7" target="ul717lJThdqu9w-6wdEX-59" edge="1">
          <mxGeometry relative="1" as="geometry" />
        </mxCell>
        <mxCell id="ul717lJThdqu9w-6wdEX-7" value="考试安排管理" style="shape=folder;fontStyle=1;spacingTop=10;tabWidth=40;tabHeight=14;tabPosition=left;html=1;" parent="1" vertex="1">
          <mxGeometry x="600" y="70" width="110" height="90" as="geometry" />
        </mxCell>
        <mxCell id="ul717lJThdqu9w-6wdEX-11" style="edgeStyle=orthogonalEdgeStyle;rounded=0;orthogonalLoop=1;jettySize=auto;html=1;exitX=0;exitY=0;exitDx=0;exitDy=71;exitPerimeter=0;entryX=0;entryY=0.5;entryDx=0;entryDy=0;" parent="1" source="ul717lJThdqu9w-6wdEX-8" target="ul717lJThdqu9w-6wdEX-9" edge="1">
          <mxGeometry relative="1" as="geometry" />
        </mxCell>
        <mxCell id="ul717lJThdqu9w-6wdEX-20" style="edgeStyle=orthogonalEdgeStyle;rounded=0;orthogonalLoop=1;jettySize=auto;html=1;exitX=0;exitY=0;exitDx=110;exitDy=71;exitPerimeter=0;entryX=0;entryY=0.5;entryDx=0;entryDy=0;" parent="1" source="ul717lJThdqu9w-6wdEX-8" target="ul717lJThdqu9w-6wdEX-16" edge="1">
          <mxGeometry relative="1" as="geometry">
            <Array as="points">
              <mxPoint x="270" y="91" />
              <mxPoint x="270" y="180" />
            </Array>
          </mxGeometry>
        </mxCell>
        <mxCell id="ul717lJThdqu9w-6wdEX-21" style="edgeStyle=orthogonalEdgeStyle;rounded=0;orthogonalLoop=1;jettySize=auto;html=1;exitX=0;exitY=0;exitDx=110;exitDy=52;exitPerimeter=0;entryX=0;entryY=0;entryDx=0;entryDy=0;" parent="1" source="ul717lJThdqu9w-6wdEX-8" target="ul717lJThdqu9w-6wdEX-15" edge="1">
          <mxGeometry relative="1" as="geometry" />
        </mxCell>
        <mxCell id="ul717lJThdqu9w-6wdEX-22" style="edgeStyle=orthogonalEdgeStyle;rounded=0;orthogonalLoop=1;jettySize=auto;html=1;exitX=0;exitY=0;exitDx=110;exitDy=33;exitPerimeter=0;entryX=0;entryY=0.5;entryDx=0;entryDy=0;" parent="1" source="ul717lJThdqu9w-6wdEX-8" target="ul717lJThdqu9w-6wdEX-14" edge="1">
          <mxGeometry relative="1" as="geometry" />
        </mxCell>
        <mxCell id="ul717lJThdqu9w-6wdEX-8" value="基本信息管理" style="shape=folder;fontStyle=1;spacingTop=10;tabWidth=40;tabHeight=14;tabPosition=left;html=1;" parent="1" vertex="1">
          <mxGeometry x="80" y="20" width="110" height="90" as="geometry" />
        </mxCell>
        <mxCell id="ul717lJThdqu9w-6wdEX-9" value="账号" style="ellipse;shape=umlEntity;whiteSpace=wrap;html=1;" parent="1" vertex="1">
          <mxGeometry x="60" y="150" width="60" height="60" as="geometry" />
        </mxCell>
        <mxCell id="ul717lJThdqu9w-6wdEX-14" value="课程" style="ellipse;shape=umlEntity;whiteSpace=wrap;html=1;" parent="1" vertex="1">
          <mxGeometry x="280" y="-20" width="60" height="60" as="geometry" />
        </mxCell>
        <mxCell id="ul717lJThdqu9w-6wdEX-15" value="题目" style="ellipse;shape=umlEntity;whiteSpace=wrap;html=1;" parent="1" vertex="1">
          <mxGeometry x="280" y="60" width="60" height="60" as="geometry" />
        </mxCell>
        <mxCell id="ul717lJThdqu9w-6wdEX-16" value="班级" style="ellipse;shape=umlEntity;whiteSpace=wrap;html=1;" parent="1" vertex="1">
          <mxGeometry x="280" y="150" width="60" height="60" as="geometry" />
        </mxCell>
        <mxCell id="ul717lJThdqu9w-6wdEX-26" value="课程信息" style="ellipse;shape=umlEntity;whiteSpace=wrap;html=1;" parent="1" vertex="1">
          <mxGeometry x="370" y="300" width="60" height="60" as="geometry" />
        </mxCell>
        <mxCell id="ul717lJThdqu9w-6wdEX-27" value="考试信息" style="ellipse;shape=umlEntity;whiteSpace=wrap;html=1;" parent="1" vertex="1">
          <mxGeometry x="280" y="300" width="60" height="60" as="geometry" />
        </mxCell>
        <mxCell id="ul717lJThdqu9w-6wdEX-28" value="试卷" style="ellipse;shape=umlEntity;whiteSpace=wrap;html=1;" parent="1" vertex="1">
          <mxGeometry x="740" y="85" width="60" height="60" as="geometry" />
        </mxCell>
        <mxCell id="ul717lJThdqu9w-6wdEX-29" value="出题" style="ellipse;shape=umlControl;whiteSpace=wrap;html=1;" parent="1" vertex="1">
          <mxGeometry x="650" y="-25" width="60" height="70" as="geometry" />
        </mxCell>
        <mxCell id="ul717lJThdqu9w-6wdEX-33" value="老师到课率" style="ellipse;shape=umlEntity;whiteSpace=wrap;html=1;" parent="1" vertex="1">
          <mxGeometry x="210" y="440" width="60" height="60" as="geometry" />
        </mxCell>
        <mxCell id="ul717lJThdqu9w-6wdEX-34" value="学生出勤率" style="ellipse;shape=umlEntity;whiteSpace=wrap;html=1;" parent="1" vertex="1">
          <mxGeometry x="210" y="360" width="60" height="60" as="geometry" />
        </mxCell>
        <mxCell id="ul717lJThdqu9w-6wdEX-35" value="班级排名" style="ellipse;shape=umlControl;whiteSpace=wrap;html=1;" parent="1" vertex="1">
          <mxGeometry x="-250" y="500" width="60" height="70" as="geometry" />
        </mxCell>
        <mxCell id="ul717lJThdqu9w-6wdEX-36" value="老师过程考核" style="ellipse;shape=umlControl;whiteSpace=wrap;html=1;" parent="1" vertex="1">
          <mxGeometry x="-250" y="270" width="60" height="70" as="geometry" />
        </mxCell>
        <mxCell id="ul717lJThdqu9w-6wdEX-37" value="学生成绩排名" style="ellipse;shape=umlControl;whiteSpace=wrap;html=1;" parent="1" vertex="1">
          <mxGeometry x="-250" y="390" width="60" height="70" as="geometry" />
        </mxCell>
        <mxCell id="ul717lJThdqu9w-6wdEX-50" value="老师" style="ellipse;shape=umlEntity;whiteSpace=wrap;html=1;" parent="1" vertex="1">
          <mxGeometry x="720" y="250" width="60" height="60" as="geometry" />
        </mxCell>
        <mxCell id="ul717lJThdqu9w-6wdEX-51" value="学生" style="ellipse;shape=umlEntity;whiteSpace=wrap;html=1;" parent="1" vertex="1">
          <mxGeometry x="720" y="360" width="60" height="60" as="geometry" />
        </mxCell>
        <mxCell id="ul717lJThdqu9w-6wdEX-52" value="管理员" style="ellipse;shape=umlEntity;whiteSpace=wrap;html=1;" parent="1" vertex="1">
          <mxGeometry x="730" y="450" width="60" height="60" as="geometry" />
        </mxCell>
        <mxCell id="ul717lJThdqu9w-6wdEX-53" value="登录" style="shape=umlBoundary;whiteSpace=wrap;html=1;" parent="1" vertex="1">
          <mxGeometry x="570" y="250" width="80" height="70" as="geometry" />
        </mxCell>
        <mxCell id="ul717lJThdqu9w-6wdEX-54" value="注册" style="shape=umlBoundary;whiteSpace=wrap;html=1;" parent="1" vertex="1">
          <mxGeometry x="580" y="514" width="80" height="70" as="geometry" />
        </mxCell>
        <mxCell id="ul717lJThdqu9w-6wdEX-57" value="导出分析数据" style="shape=umlBoundary;whiteSpace=wrap;html=1;" parent="1" vertex="1">
          <mxGeometry x="-50" y="540" width="80" height="70" as="geometry" />
        </mxCell>
        <mxCell id="ul717lJThdqu9w-6wdEX-59" value="考试安排" style="shape=umlBoundary;whiteSpace=wrap;html=1;" parent="1" vertex="1">
          <mxGeometry x="480" y="60" width="80" height="70" as="geometry" />
        </mxCell>
        <mxCell id="ul717lJThdqu9w-6wdEX-61" value="记录" style="shape=umlBoundary;whiteSpace=wrap;html=1;" parent="1" vertex="1">
          <mxGeometry x="320" y="520" width="80" height="70" as="geometry" />
        </mxCell>
      </root>
    </mxGraphModel>
  </diagram>
</mxfile>
